<svg id="Buscar_Lupa" data-name="Buscar / Lupa" xmlns="http://www.w3.org/2000/svg" viewBox="0 0 600 600"><defs><style>.cls-1{fill:#2b456e;}.cls-2{fill:#0d0d11;fill-opacity:0.3;}.cls-3{fill:#efe5e5;}</style></defs><g id="Fondo"><rect class="cls-1" x="61" y="61" width="478" height="478" rx="83"/><path class="cls-2" d="M456.26,538.72h-312c-45.65,0-63-32-59-25L514,85c1,0,26.26,23.72,25.26,58.72v312A83.24,83.24,0,0,1,456.26,538.72Z"/></g><path class="cls-3" d="M488.23,461.86,466,435,323.59,297.22A132,132,0,1,0,296.65,324L435,467l26.36,21.73a19,19,0,0,0,26.87-26.87ZM110,218a108,108,0,1,1,186.86,73.78,19.6,19.6,0,0,0-3.09,2.49h0a19.15,19.15,0,0,0-2.44,3A108,108,0,0,1,110,218Z"/></svg>