<?xml version="1.0" encoding="utf-8"?>
<!-- Generator: Adobe Illustrator 25.4.1, SVG Export Plug-In . SVG Version: 6.00 Build 0)  -->
<svg version="1.1" id="Capa_1" xmlns="http://www.w3.org/2000/svg" xmlns:xlink="http://www.w3.org/1999/xlink" x="0px" y="0px"
	 viewBox="0 0 1521.9 1504.8" style="enable-background:new 0 0 1521.9 1504.8;" xml:space="preserve">
<style type="text/css">
	.st0{fill:#4B9FD8;}
	.st1{fill:#E9EEF2;}
	.st2{fill:#DFF1F4;}
	.st3{fill:#768D98;}
	.st4{fill:#4B5959;}
	.st5{fill:#8FC040;}
	.st6{fill:#9999A1;}
	.st7{fill:#D37879;}
	.st8{fill:#83A3A3;}
	.st9{fill:#D3BE9F;}
	.st10{fill:#818E26;}
	.st11{fill:#32441D;}
	.st12{fill:#24272C;}
	.st13{fill:#0F1914;}
	.st14{fill:#98A321;}
	.st15{fill:#C2AB83;}
	.st16{fill:#81725B;}
	.st17{fill:#3B4141;}
	.st18{fill:#8792A7;}
	.st19{fill:#FDFBEE;}
	.st20{fill:#95A0A1;}
	.st21{fill:#EBE9DC;}
	.st22{fill:#8DA0AD;}
	.st23{fill:#2B456E;}
	.st24{fill:#0D0D11;}
	.st25{fill:#EFE5E5;}
	.st26{fill:#797C8B;}
	.st27{display:none;fill:#BE805E;}
	.st28{display:none;fill:#44332E;}
	.st29{fill:#AD775C;}
	.st30{opacity:0.48;fill:#AD775C;enable-background:new    ;}
	.st31{opacity:0.7;fill:#8E624F;}
	.st32{fill:#283443;}
	.st33{fill:#141516;}
	.st34{opacity:0.79;fill:#313034;enable-background:new    ;}
	.st35{fill:#1D141D;}
	.st36{fill:#8E624F;}
	.st37{fill:#261016;}
	.st38{fill:#0D0C0C;}
	.st39{fill:#7C7180;}
</style>
<g id="Capa_1_00000002350105633876719220000017847478703102974081_">
	
		<image style="overflow:visible;enable-background:new    ;" width="1080" height="1080" xlink:href="DB4CFEC5.png"  transform="matrix(1.4127 0 0 1.4127 -3.975 -21.973)">
	</image>
</g>
<g id="Ilutración">
	<g id="Capa_17">
	</g>
	<g id="Tierra">
		<polygon id="Cielo_00000168094993249336022300000005720505456710864021_" class="st0" points="1521.7,-22 -4,-22 -4,776.3 
			1521.7,740.9 		"/>
		
			<image style="overflow:visible;opacity:0.3;enable-background:new    ;" width="1992" height="1038" id="Cielo_00000095327182878967379590000007163448951114488993_" xlink:href="DB4CFEC7.png"  transform="matrix(0.7695 0 0 0.7695 -13.1604 -22.0645)">
		</image>
		<path id="Nube" class="st1" d="M-4,123.5c0,0,106.4,43.2,121.4,78.2c15,34.9-8.3,0-8.3,0s114.7-89.8,172.9,23.3
			c0,0,51.5-54.9,59.9,0c0,0,44.9-73.5,69.8-71.5c45.1,3.6,74.8,106.4,166.3,71.5c0,0,23.3,66.5,46.6,58.2c0,0,18.3-46.6,46.6-10
			c0,0,106,24.1,94.8,48.2c-11.6,24.9-49.9-28.3-84.8,3.3c0,0-88.6,38.1-74.8,15c0,0-39.9,13.3-114.7,11.6s-19.9,0.1-10,0
			c10,0-22.5-5.8-26.6,7.4c-3.9,12.4-16.7,43.9-28.4,45.6l-78.1,15.1l-28.3,6.6c0,0,54.6,8.2,60.7,23.3c5.3,13-19.1,41.6-37.4,41.6
			c0,0,173.4,0.8,179.6,3.3c13.9,5.7,58.2-16.6,68.2-10c0,0,93.1,13.3,119.7-1.7c0,0,33.2,16.6-91.5,53.2l-123,19.9l-69.9,38.2
			c0,0-64.3-62.9-99.7-49.3c-8.9,3.4-53.2,21-53.2,21s-81-31.5-108.1-39.9C121.7,512.2-4,519.2-4,519.2V409.5c0,0,74.8-10,93.1,6.6
			l159.6,11.6l-91.5-33.2L-4,381.2L-4,123.5L-4,123.5z"/>
		<path id="Nube_2" class="st2" d="M1521.7,512.6c0,0-134.1-25.5-167.2,0c-9.4,7.3-11.8,44.7-23.3,41.6
			c-28.8-7.7-139.2,3-159.6,11.6c-10.2,4.3,26.3-22.6,29.4-33.2c3.9-13-20.9-49.9-20.9-49.9s-84.5,48.8-167.9-6
			c0,0-37.9-3.1-64.7,39.3c-6.9,10.9-38.2-16-50.4-11.6c-12.9,4.6-21.6,28.3,0,54.9c0,0,1.7,53.2-34.9,34.9
			c0,0-157.9-38.6-207.9-23.3c-23,7-82.4,40.1-73.2,62.3c90.2,217.4,940.4,44.8,940.4,44.8L1521.7,512.6L1521.7,512.6z"/>
		<path id="Tierra_fondo" class="st3" d="M-4,544.8c0,0,31.6,24.4,54.9,12.7c0,0,37.4,1.4,50.5,19.5c0,0,88.5,44.3,109.7,0
			c0,0,28.7,8.1,36.2,0.6c0,0,21.2,0,21.2,5.6c0,0,11.9-2.5,11.9-6.9c0,0,37.4,1.9,33.1,10c0,0,3.7,5,33.7-20.6
			c0,0,28.7,3.1,28.7-0.6c0,0,13.1,0.5,11.2,5.6c0,0,18.7-6.2,18.1,4.4l28.7,26.8c0,0,10-2.5,10,3.7c0,0,16.8-12.5,73.6-9.3l33.1-15
			l28.1,5.6l33.1-17.5l12.5,1.9c0,0,10.6-13.7,24.9-0.6l72.3,41.8l45.5-13.7l16.2,10.2l18.7-10.2c0,0,61.7,23,85.4,25.3l326.8,26
			c0,0,101.6-17.6,110.4-12c0,0,197.5,16.2,197.5,34.9V761l-686.8-1.4l-593.6,29.6L-4,809.3L-4,544.8L-4,544.8z"/>
		<path id="Bosque_der" class="st4" d="M-4,580.8c0,0,53.2,7.6,59.9,23.7L90,592.6c0,0,4.2-0.6,6.6,0c2.5,0.6,9.1,11.9,9.1,11.9
			l17.5-4.6l27.4,9.2c0,0,7.5-19.2,23.3,4.9c0,0,39.1-10,50.7,0c0,0,44.9-7.5,49.1,0l69.8,10.1l7.1,3.6l4.2,2.5v-7.5l9.6-4.6
			c0,0,22.5,1.3,24.5,6.6c0,0,56.5-18.3,71.1,2.1l13.3,5.4v-7.5l9.6-2.5l15.8,6.3l9.6,6.6v11.6c0,0,14.6-9.1,15.8-5.8v5.8h15
			l11.6,10.4l4.6,9.6l-8.3,4.2l8.3,6.6c0,0,5.8,2.1,5.8,3.3c0,1.2-5,8.7-5,8.7s-5.4-1.3-6.6,0c-1.3,1.3-12-5.8-12-5.8l-24.5,6
			l15,15.7h20.8l21.6-2.9c0,0,28.7-0.4,28.7,2.9c0,3.3-3.7,28.3-3.7,28.3s-37.8,1.3-39.5,0c-1.7-1.3-14.6-8.3-17.9-8.3
			c-3.3,0-25.8-2.9-27-3.3c-1.3-0.4-57.4,2.1-57.4,2.1s-12.5,7.5-13.7,7.5c-1.3,0-15.8,5.3-17,2.6c-1.3-2.6-9.1-14.7-9.1-14.7
			l-20.8,1.3l-6.6,10.8l-24.5-4.6l-39.1-15.4l-11.2-9.1l-10.8-12.5c0,0-22-1.3-23.7-0.8s-5.5,5-5.5,5s-5-6.6-13.3-4.2
			c-8.3,2.5-12,2.5-12,2.5l-10.8,10.8l-18.3,7.5l15,12c0,0-17.9,16.7-19.1,17.9c-1.3,1.2-99.4,5-99.4,5L16.4,750l-20.4-2.9L-4,580.8
			L-4,580.8z"/>
		<polygon class="st5" points="299.1,624.1 246.7,650.2 299.1,655.8 305.3,671 355.2,683.9 341.5,671 314,655.8 337.7,643.2 		"/>
		<path class="st5" d="M549.8,655.8c1.7-1-2.9,15.2-2.9,15.2l9.6,9.2l-4.8,8.9l-15.2-5.3l-26.2,5l11,15.7c0,0,26.7,7.7,30.9,7.3
			c4.2-0.4,35.9,2.5,37.1,2.9c1.2,0.3,58.6,9.4,62.3,9.4c3.7,0,86.5,2.1,86.5,2.1s7.5-7.7,4.2-11.5c-3.3-3.9-62.8-28-62.8-28
			l-57-11.1L588,660.1h-20.4L549.8,655.8z"/>
		<polyline id="Fachadas" class="st6" points="-4,755.4 165,750.4 178.1,745.1 283.5,750.3 374.5,750.3 367.7,770.4 60.2,787.8 
			12.2,782.2 -4,779.7 -4,755.4 		"/>
		<path id="Tejados_00000153677635440154811540000001395254684731843749_" class="st7" d="M-4,747.9c0,0,43.7,1.3,45.5,0
			s74.2,0,74.2,0l46.1-4.3c0,0,3.7-8.1,5.6-6.9s26.2-0.1,26.2-0.1v11.9l33.7-7.6l73,1.6h32.4h25.6l26.8-1.6l41.5,1.6l38.3-9.6
			l33.7-4.3l28.7,10l-10,7.1h-48c0,0-16.2,6.1-18.7,6.1c-2.5,0-31.8,0-31.8,0h-27.4l-25.6,5.6l-30.5,4.3l-6.3-6.3l-13.1-1.3
			l-20.5-1.9l-62.3,2.5l-61.7-5l-1.3,11.9h-13.7l-10.6-5L-4,759.1C-4,759.1-4,747.9-4,747.9z"/>
		<path id="Tejados" class="st7" d="M595.3,709.6l3.1,5.2v13.8l3.3-1.4l-28.1,4.3l-3.3,9.4v4.2h7.5l57.4,0.5l99.8,4.8h98.5
			l106.3-5.3l-40.2-36.5h-70.5l-36.8,0.9l-30.5,19.9l-39.3,11.3l-10-22.9l-39.9-8.4l-27.4,14h-13.1c0,0-1.3-16.2-3.7-14
			C625.8,711.8,595.3,709.6,595.3,709.6z"/>
		<path id="Agua" class="st8" d="M-4,831.5v492.6l788.2-296.4L1294.7,750l-595.3,31.2C699.4,781.2,647.9,751.7-4,831.5z"/>
		<path id="Playa" class="st9" d="M-3.1,845.2c0,0,761.6-95.6,784.8-66.1c0,0-185.4-56.7-785.7-0.9L-3.1,845.2z"/>
		<path class="st10" d="M-4,1503.7v-357.9c0,0,58.2-11.2,36.6,17l-15.9,20c0,0-14,24.9,12.6,19.9c0,0,11.6-49.9,33.2-39.9
			c0,0,26.6-1.7,26.6-10c0,0,88.1-76.5,121.4-48.2l11.6,23.3l43.2-11.6c0,0,21.6-59.9,31.6-61.5h44.9l-23.3-51.5h48.2
			c0,0-19.9-36.6-10-38.2c10-1.7,26.6,16.6,26.6,16.6l-13.3-32.4h13.3c0,0,33.2-7.1,11.6-17.2c-21.6-10.2-13.3-28.5-13.3-28.5
			l20.6,11.6l59.2-20.3l46.6,13.7l11.6-13.7c0,0-28.3-16.7-21.6-18.1c6.6-1.4,21.6,0,21.6,0l26.6-14.8l23.3,14.8v-14.8l-19.9-38.2
			h19.9l11.6-8.3v-19.1l28.3-9.5l53.2-41h38.2h43.2l26.6-20.1l15-10.7l36.6,15.7v24.9l31.6-14.5l58.1-13.8l314.4-71.3l13.5-11.4
			c0,0,13.1,6.5,15.6,5.8c2.5-0.8,33.7-8.2,33.7-8.2l24.9-4.3l38.7,9.3l18.1,16.2c0,0-9.3,30.5-6.9,30.5s19.3,4.3,19.3,4.3
			s-9.3-12,0-12.2s26.2,0,26.2,0l28.1-12.7l-4.3-28.7c0,0,21.2,7.2,19.3,5.8c-1.9-1.4,16.2-10.1,16.2-10.1s5.6,0.6,5.6-1.9
			c0-2.5,3.1-5,3.1-5l4.3-9.1c0,0,16.8-12.1,19.3-10.3c2.5,1.9,20.4,1.9,20.4,1.9v195.8l-640.3,271.4l-10.6,17.9L571,1247.6
			L22.2,1503.7H-4z"/>
		<path id="Sombra_setos" class="st11" d="M-4,1281.8l53.2-105.7l64.9-11.6l-26.6,83.2l-39.9,89l114.7-44l68.2-93.2
			c0,0,18.3,28.7,28.3,27.6c10-1,63.2-21,63.2-21l63.2-13.3l11.6-19.9l51.5-69.8l48.2,28.3v63.2l33.2-91.5l143-89.8l-29.9-136.6
			l-36.6-59.7l98.1-56.5l29.9,15.8l48.2,3l-16.6,115.6l28.3,141.7l19.9-104.6l57.3-106.5l40.8,6.6L1201,677.9l128.5-17.9l34.9,33.7
			c0,0-23.3,36.6-16.6,36.6c6.7,0,61.5-20.9,61.5-20.9l43.2,5.2l36.6-32.7l13.3-9c0,0,19.2,12.5,19.2,24.2s0,43.7,0,43.7l-24.2,22.8
			l-39.9-3.3l-81.5,35.7l-102.5,47.4l-240.8-42.8l-62.6,51.5l-88.8,226.5l-720.8,346.9l-38.2-30.5L-4,1425.5L-4,1281.8L-4,1281.8z"
			/>
		<polygon id="Tierra_00000075140721008823213040000017543194438676331165_" class="st12" points="1521.7,984.1 1521.7,1503.7 
			1156.7,1505.3 1509.2,969.9 		"/>
		<path id="Cesped_osc" class="st13" d="M1521.7,949.1l-340.2,554.6h128.1l73.2-109.2c0,0-15-25.5,8.3-38.8c0,0,81.5-28.1,76.5-63.1
			c0,0,28.3-50.8,21.6-66.2l32.5-18.8L1521.7,949.1L1521.7,949.1z"/>
		<polygon id="Cesped_Claro" class="st14" points="19.3,1503.7 400.1,1302.5 586.3,1214.3 881.5,1082.9 1521.7,876.6 1133.7,1503.7 
					"/>
		<path id="Piedra" class="st15" d="M11,1503.7c0,0,104.8-46.6,109.7-48.3c5-1.7,133-68.2,133-68.2l-31.6-16.6
			c0,0-81.5,23.3-89.8,46.6C132.4,1417.2,22.6,1478.9,11,1503.7z"/>
	</g>
	<g id="Muro_00000093866791403537086540000004944101370945191043_">
		<polygon id="Muro" class="st16" points="1522,792.4 1491.2,787.8 1253.7,865.8 898.9,958.7 891.7,973 895.1,977.4 887.6,996.4 
			889.5,1022.3 887.6,1027 887.6,1033.8 881.7,1038.2 881.7,1059.4 883.9,1065 881.7,1069.7 881.7,1102.7 870.2,1116.1 868,1177.6 
			876.4,1186.3 874.5,1197.2 864.9,1212.5 864.9,1227.4 857.7,1233.7 833.4,1237.4 745.2,1298.5 742.7,1306 736.4,1306 
			676.6,1344.7 662.2,1350 649.8,1356.8 649.8,1359.9 426.8,1503.7 1197.9,1503.7 1522,980.5 		"/>
		<path id="Sombra" class="st17" d="M1521.7,861.8l-226.2,146.3h-29.9l-261.1-9.1l198.7,330.9l17.5,15v10l-61.5-30.8l-56.5,15
			l-72.3-18.3c0,0-10.8-15-30.8-15.8l-158,13.3c0,0-8,28.8,64,28.3c1.4,0,2.7,0,4.2-0.1c76.5-1.7,77.3-2.5,77.3-2.5l59,10.8
			l55.7,18.3c0,0,4.2,28.3,37.4,31.6l34.1,15l-57.4,84h87l318.8-519.7L1521.7,861.8"/>
	</g>
	<g id="Persona">
		<g id="Zapatilla_Derecha">
			<path id="Calcetin" class="st18" d="M960.2,1257.3l10.9,0.5c0,0,4.4,4.2,13.2,0l8.7-10.1l1.6,1.6l-4.6,13.7
				c-0.9,0.5-7.7,10.6-22.3,0.6L960.2,1257.3z"/>
			<path id="Base" class="st19" d="M994.4,1248.6c0,0,3.1,2.7,8.1,53.6c0,0,4,15.4-31.8,15.8c0,0-34.7-1.7-59.9,17l-35.1,1.4
				c0,0-34.5-6.9-42.8-24.3c0,0-3.5-15.8,20.2-21.6c0,0,25.6-5.8,42.8-24.1l21.8-20.6c0,0-4.5-8.1,5.9-18.9c0,0,27,0.6,27.9,23.5
				l20.2,15.4c0,0,14,4,18.7-6L994.4,1248.6z"/>
			<path id="Sombra_00000028326625842622455710000001030471182108395941_" class="st20" d="M951.3,1250.5l-57.4,53.2
				c0,0-19-2.9-52.3,18.8l34,14.1l35.1-1.4c0,0,16.2-17.1,59.9-17c0,0,32.3,0.9,31.8-15.8l-8.1-53.6c0,0-2.2,22-22.9,17.2
				L951.3,1250.5z"/>
		</g>
		<g id="Zapatilla_izquierda">
			<path id="Base_00000111901057072279852300000013395675553332736437_" class="st21" d="M1099.5,1267.6l-4.8,7.9v32.2v11.6
				l5.8,17.2h2.7v18.1l-1,19.1c0,0,4.3,15,16.4,18.1c0,0,23.9,6,52.4,1.4c0,0,7.3-2.3,8.3-10.2c0,0,2.9-13.9-1.9-26l-20.8-39.9
				l-3.3-22.2l0.6-10.8l-5.2-4.6l1.3-7.9c0,0-44.7-15.4-39.3-0.6L1099.5,1267.6z"/>
			<path id="Sombra_00000095303913997291227830000010883615178467120558_" class="st22" d="M1102.4,1268.5l-0.6,8.2l-7.1,0.6v32.1
				h2.9l0.2,10.9l2.8,3.7l-0.1,12.5h2.7v3.6l9.7-8.4l11.9-0.6l43.3,30.3c0,0-0.3,2.2-1.3,8l-17.7,6.4l15.2,5l-7.1,5.1l4.3,8.4
				c0,0,13.6,1.2,16.7-9c0,0,5.3-14.4-0.7-28.4l-20.8-39.9l-3.3-22.2l0.6-10.8l-5.2-4.6l1.2-7.5c0,0-43.1-16.6-39.2-1L1102.4,1268.5
				z"/>
		</g>
		<g id="Pantalones">
			<path id="Base_00000086678760470387356170000003341979176635802247_" class="st23" d="M1055.6,879.4l-49.9,17.2
				c0,0-64.4,28.3-70.5,35.3c0,0-34.3,15-31.4,80.4c0,0-1.4,59,6,96.5l2.5,52l3.5,20.6c0,0-1.7,13.1,9.3,19.1c0,0-27.2,8.1-4.6,25.2
				c0,0,27.6,1,29.9,24.3l10,7.1c0,0,9.1,0.4,9.3,0s6.4,6.6,16.8-1.9l5.6-8.1l-0.2-13.3c0,0-4.2-0.2-2.1-6.3c0,0-5-4.8,1.3-8.5
				c0,0,4.6-15.2-7.9-13.1l1.3-4.8l6.3-5.8v-26l-9.3-22l3.1-16c0,0,5.2-76.1-4.2-85.4l0.4-22.2c0,0,3.7-16.4,20.2-18.9l128.7-16.4
				l5.6,14.8l5.8,32.8c0,0-5.4,26,6,31.2c0,0-5.8,5-2.5,18.9l-19.7,51.4l0.4,27.9l-6.4,10.4l0.8,16.6c0,0-5.8,10.8-5.6,17.9
				l-8.9,8.1l0.2,11.6l-7.7,11l-7.3,0.4l4.2,7.7l4.2,18.1l11.2,3.5c0,0-6.4-14.8,39.2,1l-1.2,7.5l5.2,4.6l12.3-1.4l3.1-16.8
				c0,0,15.4-3.7,4.8-23.9l31.2-65c0,0,29.1-52.6,22.5-84.2l9.8-30.8l31-58c0,0,8.9-44.5,0-40.9l1-10.2l-36-26.8l-42-16.8l-73.2-4.2
				l-18.3-4.3l-22.9-19.1L1055.6,879.4z"/>
			<path id="Sombra_00000039820337923984796000000009059359941813340345_" class="st24" d="M1135.4,1003.1c0,0,4.5-36.2,27.5-44.3
				l-14.3,58.3l6.3,32.4c0,0,6.8,20.1,35,29.2l-18.5,19.5l-7.5,84l-7.5,14.1l-8.3-1.3l-22.8-43.2l0.2,13.3l-6.4,10.4l0.8,16.6
				c0,0-5.8,10.8-5.6,17.9l-8.9,8.1l0.2,11.6l-7.7,11l-7.3,0.4l4.2,7.7l4.2,18.1l11.2,3.5c0,0-6.4-14.8,39.2,1l-1.2,7.5l5.2,4.6
				l12.3-1.4l3.1-16.8c0,0,15.4-3.7,4.8-23.9l31.2-65c0,0,29.1-52.6,22.5-84.2l9.8-30.8l31-58c0,0,8.9-44.5,0-40.9l1-10.2l-36-26.8
				l-42-16.8l-73.2-4.2l-18.3-4.3l-22.7-19l-21.2-1.8l7.7,11h-12.5v3.7l-30-2.7l-70.6,31.3l0,0c0,0,5.9,6.3,23.7,10.9l15.8,15.8
				c0,0-29.6-7.9-39.5,14.1l-30.7,5.4c0,0-11.6,19.1-8.7,27.9l4.6,130.1l18.7,15l-2.9,39.9H954l-15.8,12.5l-10.8,7.1l2.1,12.9h15.8
				l-13.3,13.7c0,0,21.8,2.7,18.8,22l10,7.1h9.3c0.2-0.4,4.8,4.7,12.5,0.9c2-1.2,4.3-3.1,6.6-6.1l3.3-4.8l-0.2-13.3
				c0,0-4.2-0.2-2.1-6.3c0,0-3.8-3.7-0.5-7.1c0.5-0.5,1-1,1.8-1.4c0,0,3-10-2.5-12.7c-1.3-0.5-3-0.8-5.4-0.5c0,0-0.4-6.9,7.5-10.6
				v-26l-9.3-22c0,0,2.2-11.3,3.7-27.3c0.6-12.7,1.3-33.9,0.3-50.5c-1-8.4-2.5-16.5-5.1-23.7l0.4-22.2c0,0,0.5-9.8,11.4-15.7
				c2.4-1.5,5.3-2.7,8.8-3.2l128.7-16.4L1135.4,1003.1z"/>
		</g>
		<g id="Capa_9">
		</g>
		<g id="Camiseta">
			<path id="Base_00000152962666203553944200000017776366022140269188_" class="st25" d="M1059.8,638.7h4.3l14.7-5.6
				c0,0,0.3,43.3-4.7,50.2c0,0-11.2,34.6-32.4,41.1l-82,20.3c0,0-5.3,22.7-7.8,36.5c0,0,0,26.8,3.4,42.7l15.3-3.7l44.7,3.7
				c0,0,24.8,50.5,41,51.1l0.3,4.3h19c0,0,7,9.5,23.2,19.9l30.1,4.8l56.3,4.1l47.6,17.8l35.7,25.7c0,0,15.4-30.7,12.5-42.1
				l-25.7-39.9l-57.7-82.6l-19.2-43.5c8.3-6.6,18.1-13.6,29.5-20.4c15-9,29.3-15.5,41.6-20.3c-5.5-8.3-11-16.6-16.5-24.9
				c-3.9-2.5-8.8-6.3-13.5-11.7c-6.9-8-10.4-16-12.2-21.3c0,0-10.6-28.5-49.7-33.2l-74.7,15l-12.1,2.2L1059.8,638.7z"/>
			<g>
				<polygon class="st26" points="1121.5,659.9 1120.3,629.9 1125.6,622.4 1115,632.7 1113.1,660.1 1120.5,686.1 1125,666.4 				"/>
				<polygon class="st26" points="1120.5,686.1 1119.6,689.9 1121.5,689.8 				"/>
				<path class="st26" d="M1131.2,905.7l56.3,4.1l47.6,17.8l35.7,25.7c0,0,15.4-30.7,12.5-42.1l-25.7-39.9l-57.7-82.6l-19.2-43.5
					c8.3-6.6,18.1-13.6,29.5-20.4c15-9,29.3-15.5,41.6-20.3c-5.5-8.3-11-16.6-16.5-24.9c-3.9-2.5-8.8-6.3-13.5-11.7
					c-6.9-8-10.4-16-12.2-21.3c0,0-3.5-9.3-13.8-18.2c-13.4,3.4-38.5,12.6-36.7,32.5l-3.4-23.4c0,0-10.3,25.6-6.5,41.1l-8.1-30.3
					l3.4,51.5l-3.4,24.3h-3.4v-71.7l-21.5,78.3c0,0-0.9,0.9-2.8-11.9l6.5-28.9l-3.1,0.2l-5-23.7l-3.7-6.3v-23.4
					c0,0-8.7,59.2-12.8,60.8c0,0-8.1,9.1,2.5-47.4l3.7-15l-9.2,12.5v33.1c0,0-4.5,9.7-6.7,9.3c-2.2-0.3,0-36.8,0-36.8l-4.9,5.2
					c-0.6,11.3-1.7,23-4.2,26.3c-1.1,2.5-2.7,6.2-4.8,10.5c-0.3,0.6-4.3,8.6-6.8,12.7c-2.6,4.2-8.3,11.4-20.8,18l-60.6,15l49.7,25.9
					l3.7,16.4v23.5l-5-1.9l-0.6-13.4c0,0-14.3-39.3-25.3-16.2c0,0-15.2,0.8-15.5,0.7c-0.3-0.1-19.3-16.4-19.3-16.4l15.8,17.8
					l1.4,3.3l-20.4-8.2l18.8,10.1l-0.1,4.3l-22.4-8.8l23.1,13.8l-1.5,0.8l-23.6-7.1c0,0,4.3,6.9,21.4,10.6l-1.3,4.7
					c0,0-21.9-2.5-21-0.6c0,0-1.7,3.3,20.3,3.7l-1,1.7c0,0-23.2-3-23-1.4c0,0-2.4,2.4,21.7,4.7l-0.1,1.1c0,0-21.9-1.4-19.4,0.7
					c0,0,0.7,2.9,19,1.8l10.7,10.5l28,2.4c0,0,24.8,50.5,41,51.1l0.3,4.3h19c0,0,7,9.5,23.2,19.9L1131.2,905.7z"/>
			</g>
		</g>
		<g id="Piel">
			<path id="Base_00000029767225635261276290000006362490409064703619_" class="st27" d="M1240.5,710.1c0,0,17.5,38,24.3,98.2
				c0,0,9.7,12.1,2.2,33.1c0,0-23.7,83.9-55.5,126.9c0,0-2.2,10.3,0,14l10.9,23.4l5.9,12.1l6.9,9.7c0,0,4.3,23.4,1.5,29.9
				c0,0-2.8,5.9-7.5,3.1l-1.3,11.9c0,0-9.1,11.5-10.9,0l-2.5-20.3l-9.7-20.6l3.4,19l-0.6,27c0,0-7.5,20.4-14.7,0v-23.2l-6.9-24
				l-2.2-1.9v18.4v24.3c0,0-4.1,15-11.9-0.6l-4.7-23.1l-1.9-18.1l-3.7-10.9c0,0,0.3-4.7-8.1-3.4v12.1l7.5,11.5c0,0,2.8,10-0.3,10
				c0,0-6.9,3.7-9.7-3.4l-12.1-12.8l-3.4-26.2c0,0,26.2-24.6,28.7-35.2l2.8-15c0,0-2.8-5,4.3-9.1l13.7-34.9c0,0,6.9-4.1,8.4-35.9
				c0,0,5.6-29.6,18.4-57.7l-6.5-15.6c0,0-12.8-5-26.2-61l-137.5-13.2l-5,27.1c0,0-5,21.2-10.6,20.9l-11.9,49.6
				c0,0,4.1,67.7-21.5,99.1c0,0-12.5,24.9-42.7-3.1c0,0-5.3-6.5-3.7-21.5c0,0-6.5,4.1-3.4-29.9l14.3-33.3c0,0,1.3-14,16.5-13.1
				l14.7-48.3l0.9-15l-26.2-14c0,0-55.5-28.7-65.8-37.1l-13.1-2.8l30.3-82h62.7c0,0,9.1-2.8,11.2,0c0,0,13.1,13.4,14.3,15
				c0,0,53.6,14.3,78.6-5.9l121.6,20.6L1240.5,710.1z"/>
			<path class="st28" d="M1153.8,1015.1c3.7-0.5,5.7,0,6.8,0.9l-0.5-8.7l32.7-10.3c15.6,4.1,14,13.4,14,13.4l-10.9,0.3
				c-10.3,13.7,7.8,17.8,7.8,17.8l1.3,14.3l-11.9,11.5v23.2c7.2,20.4,14.7,0,14.7,0l0.6-27l-3.4-19l9.7,20.6l2.5,20.3
				c1.9,11.5,10.9,0,10.9,0l1.3-11.9c4.7,2.8,7.5-3.1,7.5-3.1c2.8-6.5-1.5-29.9-1.5-29.9l-6.9-9.7l-5.9-12.1l-10.9-23.4
				c-2.2-3.7,0-14,0-14c31.8-43,55.5-126.9,55.5-126.9c7.5-20.9-2.2-33.1-2.2-33.1c-6.9-60.2-24.3-98.2-24.3-98.2l-37.4-55.2
				l-39-6.6l-82.4,14.1l-54.9,2.7c-12.3-2.3-20.6-18.1-20.6-18.1l-5.5-9.2l0,0l-10.3-8.5c0-0.2,0.1-0.5,0.1-0.8
				c0.1-0.7-0.1-1.3-0.4-1.7c-0.4-0.4-0.7-0.7-1-1c-2.8-1.9-9-1.3-9-1.3c-2.9,4-3,6.4-3,6.4l0.4,6.9l-0.8,4.6l-13.7-4.6
				c0,0-31.5,0.3-53.2,0.7l-25.4,68.7l13.1,2.8c10.3,8.4,65.8,37.1,65.8,37.1l26.2,14l-0.9,15l-14.7,48.3c0,0-0.1,0-0.1,0
				c2.4,4.8,6.7,10.4,6.7,10.4c1.4,4-19.3,42.6-19.3,42.6C959,901.3,952,921,952,921l-1.8,1.4l0,0c30.3,28.1,42.7,3.1,42.7,3.1
				c25.6-31.5,21.5-99.1,21.5-99.1l11.9-49.6c5.6,0.3,10.6-20.9,10.6-20.9l5-27.1l137.5,13.2c8.7,36.4,17.2,51.3,22,57.2l-10.2-27.1
				v-15.2l4.2-13.5l26.4,16.8c2.5,32.4,19.9,31.6,19.9,31.6v21.6l-27,100.4l-13.1-2.3c0.6-39.7-7.9-35.3-7.9-35.3
				c-1.5,31.8-8.4,35.9-8.4,35.9l-13.7,34.9c-7.2,4.1-4.3,9.1-4.3,9.1l-2.8,15c-2.5,10.6-28.7,35.2-28.7,35.2l18.1,20.9
				L1153.8,1015.1L1153.8,1015.1z"/>
			<g>
				<g>
					<path class="st29" d="M1087.9,634l-14,0.8c-8.8,3.7-24.8,9.1-45,7.5c-10.5-0.8-19.2-3.4-25.8-5.8c-5.2-4.3-10.3-8.5-15.5-12.8
						l0,0c-2.2-2.8-11.2,0-11.2,0h-62.7l-30.3,82l13.1,2.8c10.3,8.4,65.8,37.1,65.8,37.1l26.2,14l-0.9,15L973,822.9
						c-15.3-0.9-16.5,13.1-16.5,13.1l-14.3,33.3c-3.1,34,3.4,29.9,3.4,29.9c-1.5,15,3.7,21.5,3.7,21.5c30.3,28.1,42.7,3.1,42.7,3.1
						c25.6-31.5,21.5-99.1,21.5-99.1l11.9-49.6c5.6,0.3,10.6-20.9,10.6-20.9l5-27.1c9.1-4,24.1-12.9,30.4-30.9
						c2.4-5.1,7.9-13.6,9.3-25.8c0.9-8-0.3-13.9,1.9-21.7C1084.6,642.1,1084.9,637.2,1087.9,634z"/>
					<path class="st29" d="M1265.7,840.1c7.5-20.9-2.2-33.1-2.2-33.1c-6.9-60.2-24.3-98.2-24.3-98.2l-61.1,31.9
						c13.4,55.9,26.2,61,26.2,61l6.5,15.6c-12.8,28.1-18.4,57.7-18.4,57.7c-1.5,31.8-8.4,35.9-8.4,35.9l-13.7,34.9
						c-7.2,4.1-4.3,9.1-4.3,9.1l-2.8,15c-2.5,10.6-28.7,35.2-28.7,35.2l3.4,26.2l12.1,12.8c2.8,7.2,9.7,3.4,9.7,3.4
						c3.1,0,0.3-10,0.3-10l-7.5-11.5v-12.1c8.4-1.3,8.1,3.4,8.1,3.4l3.7,10.9l1.9,18.1l4.7,23.1c7.8,15.6,11.9,0.6,11.9,0.6v-24.3
						v-18.4l2.2,1.9l6.9,24v23.2c7.2,20.4,14.7,0,14.7,0l0.6-27l-3.4-19l9.7,20.6l2.5,20.3c1.9,11.5,10.9,0,10.9,0l1.3-11.9
						c4.7,2.8,7.5-3.1,7.5-3.1c2.8-6.5-1.5-29.9-1.5-29.9l-6.9-9.7l-5.9-12.1l-10.9-23.4c-2.2-3.7,0-14,0-14
						C1242,924,1265.7,840.1,1265.7,840.1z"/>
				</g>
				<path class="st30" d="M1080.3,660.8l-54.9,2.7c-12.3-2.3-20.6-18.1-20.6-18.1l-5.5-9.2l0,0l-10.3-8.5c0-0.2,0.1-0.5,0.1-0.8
					c0.1-0.7-0.1-1.3-0.4-1.7c-0.4-0.4-0.7-0.7-1-1c-2.8-1.9-9-1.3-9-1.3c-2.9,4-3,6.4-3,6.4l0.4,6.9l-0.8,4.6l-13.7-4.6
					c0,0-31.5,0.3-53.2,0.7L883,705.7l13.1,2.8c10.3,8.4,65.8,37.1,65.8,37.1l26.2,14l-0.9,15L972.5,823c0,0-0.1,0-0.1,0
					c2.4,4.8,6.7,10.4,6.7,10.4c1.4,4-19.3,42.6-19.3,42.6c-2.1,23.7-9.1,43.4-9.1,43.4l-1.8,1.4l0,0c30.3,28.1,42.7,3.1,42.7,3.1
					c25.6-31.5,23.6-99,23.6-99l11.9-49.6c3.5,0.2,8.5-21,8.5-21l5-27.1c10.9-4.4,19.8-10.5,28.2-25.1
					C1078.7,684.6,1080.3,667.8,1080.3,660.8z"/>
				<path class="st31" d="M1265.7,840.1c7.5-20.9-2.2-33.1-2.2-33.1c-6.9-60.2-24.3-98.2-24.3-98.2l-61.1,31.9
					c8.7,36.4,17.2,51.3,22,57.2l-10.2-27.1v-15.2l4.2-13.5l26.4,16.8c2.5,32.4,19.9,31.6,19.9,31.6v21.6l-27,100.4l-13.1-2.3
					c0.6-39.7-7.9-35.3-7.9-35.3c-1.5,31.8-8.4,35.9-8.4,35.9l-13.7,34.9c-7.2,4.1-4.3,9.1-4.3,9.1l-2.8,15
					c-2.5,10.6-28.7,35.2-28.7,35.2l18.1,20.9v-12.1c3.7-0.5,5.7,0,6.8,0.9l-0.5-8.7l32.7-10.3c15.6,4.1,14,13.4,14,13.4l-10.9,0.3
					c-10.3,13.7,7.8,17.8,7.8,17.8l1.3,14.3l-11.9,11.5v23.2c7.2,20.4,14.7,0,14.7,0l0.6-27l-3.4-19l9.7,20.6l2.5,20.3
					c1.9,11.5,10.9,0,10.9,0l1.3-11.9c4.7,2.8,7.5-3.1,7.5-3.1c2.8-6.5-1.5-29.9-1.5-29.9l-6.9-9.7l-5.9-12.1l-10.9-23.4
					c-2.2-3.7,0-14,0-14C1242,924,1265.7,840.1,1265.7,840.1z"/>
			</g>
		</g>
		<g id="Reloj">
			<path class="st32" d="M1164.3,958.5c0,0-3.6,8-1.1,10.7c0,0,17.5-1.5,22.3,0.2c0,0,16.4,8.3,22.9,8.1c0,0,2.3,0,2.9-9.4
				c0,0-16.2-12.4-27.4-9.5C1183.8,958.5,1171.7,956.4,1164.3,958.5z"/>
			<path class="st33" d="M1212.1,968.7c-3.2-2.3-15.9-10.8-25.6-9.1c-0.7,2.7-1.4,5.8-0.4,6.4l24.7,6.9
				C1210.7,972.8,1211.6,970.9,1212.1,968.7z"/>
		</g>
		<g id="Barba">
			<path class="st34" d="M989,653l9.3,7.8v34.9v12.1l31.2,6.9c0,0,15.3-40.5-3.1-51.1l-19.7-7.9L989,653z"/>
		</g>
		<g id="Pelo">
			<path class="st35" d="M931.7,647.5c0,0-11.2,14.9-9.3,23.5c0,0-11.2,23.6-16.5,18l-7.8,17.5l5,3.1h-18.7c0,0-7,0.7-9.1-8.4v-12
				c0,0-6.9-11.4-2.3-28.3c0,0,4.8-25.8,11.6-29.9c6.9-4.2-1,0-1,0s16-22.5,38.2-22.9c0,0,21.4-4.2,33.9,4.6l21.1,11
				c0,0-3.9,6.3-2.4,16.4l11.4,13.1h-22.6c0,0-20.4,10.8-24.3,1.3L931.7,647.5z"/>
			
				<image style="overflow:visible;enable-background:new    ;" width="154" height="133" xlink:href="DB4CFEC2.png"  transform="matrix(0.7481 0 0 0.7481 870.7825 605.9103)">
			</image>
		</g>
		<g id="Mano_cara">
			<path class="st36" d="M1032,720.4l2.4-3l2-5.3c1.7-11.7-8.1-9.1-8.1-9.1l-7.2,8.1l-0.2-2.9l3.4-6.1c5.4-9.5-1.7-12.6-1.7-12.6
				c-5.3-6.1-11.1,3.6-11.1,3.6l-5.3,14c-2,1.1-5.5-0.6-5.5-0.6l0.3-21.8l4.1-11.7c5-15.8-8-9.7-8-9.7l-10.4,23.6l-1.8,24.5V735
				c-2.6,2-18.3,3.3-18.3,3.3l-6.5-3.9l-6.2,8.1c4.9,2.6,8,4.2,8,4.2l1.6,0.8c1.1,0.1,19,8.3,23.9,12.9c3,2.8-2.9,19.7-3.4,25.7
				c-4.7,12.5-9.9,29.6-11.5,37.9c-0.4,2.1,6.7,9.1,6.4,10.2c-2.4,10-11.9,28.3-19.4,41.4c-3,5.1-1.2,14.3-2.9,21.4
				c-3,12.2-8.4,22.4-7.8,24.9c1.4,5.9,10.5,8.1,14.9,9.8c5.1,1.9,13.3,4,20.9,0.7c9.5-4.1,11.8-13.6,19.2-31.2
				c11.6-27.5,7.8-51.5,10.7-73.3c1.6-11.9,6.2-28.8,12-50.5c2.3-3,5.4-7.9,7.3-14.6c1.3-4.6,1.7-8.7,1.7-11.9l2.4-9.8l2.4-13
				c0.3-0.2,0.7-0.4,1-0.6c1.3-2.4,1.1-5.3-0.5-7.1C1039.1,718.2,1034.9,717.9,1032,720.4z"/>
		</g>
		<g id="Gafas">
			<polygon id="Patilla" class="st37" points="969.2,641.1 969,642.2 964.2,668.9 964.2,671 969.1,673.1 971.5,641.1 974.4,633.2 
							"/>
			<path id="Vristales" class="st38" d="M964.2,668.5l-0.3,0.5l-5.1,7.8c0,0-13.4,11.9-9.3,30.4l-3.4,6.9c0,0-14.2,10.4-12.9,25.4
				c0.2,1.9,1.3,3.5,3,4.4c3,1.5,8.8,2.9,19.2,0.3c0,0,26.5-10.8-0.5-29l0.5-3.7l15.1,0.2c0,0,17.1-3.4,10.4-24
				c0,0-6.1-8.2-12.6-9.5l1.1-7.4L964.2,668.5z"/>
			<g id="Metal">
				<polygon class="st39" points="968.4,678 969.6,670.8 964.2,668.5 963.8,669 959.9,674.8 				"/>
				<path class="st39" d="M969,678.3l2.6,1C970.8,678.8,969.9,678.5,969,678.3z"/>
			</g>
		</g>
	</g>
</g>
</svg>
